<?xml version="1.0" standalone="no"?>
<!DOCTYPE svg PUBLIC "-//W3C//DTD SVG 20010904//EN"
 "http://www.w3.org/TR/2001/REC-SVG-20010904/DTD/svg10.dtd">
<svg version="1.0" xmlns="http://www.w3.org/2000/svg"
 width="225.000000pt" height="225.000000pt" viewBox="0 0 225.000000 225.000000"
 preserveAspectRatio="xMidYMid meet">

<g transform="translate(0.000000,225.000000) scale(0.100000,-0.100000)"
fill="#000000" stroke="none">
<path d="M975 2239 c-229 -29 -448 -135 -621 -301 -110 -106 -172 -189 -234
-313 -157 -318 -157 -683 0 -1000 59 -119 113 -192 218 -298 382 -387 1013
-433 1451 -107 567 423 617 1234 105 1720 -248 236 -574 342 -919 299z m397
-88 c360 -94 636 -348 754 -693 207 -608 -194 -1270 -831 -1373 -571 -93
-1110 291 -1210 864 -99 565 283 1107 858 1217 102 19 328 12 429 -15z"/>
<path d="M565 1286 c-119 -53 -141 -206 -42 -293 125 -110 321 14 277 176 -27
101 -142 158 -235 117z m137 -85 c28 -25 33 -36 33 -76 0 -40 -5 -51 -33 -76
-69 -61 -171 -17 -172 74 0 48 13 72 48 91 44 24 88 20 124 -13z"/>
<path d="M1055 1284 c-109 -56 -138 -184 -62 -271 143 -162 395 29 274 208
-46 69 -145 98 -212 63z m141 -88 c26 -26 34 -42 34 -71 0 -52 -53 -105 -105
-105 -52 0 -105 53 -105 105 0 29 8 45 34 71 26 26 42 34 71 34 29 0 45 -8 71
-34z"/>
<path d="M1545 1281 c-188 -86 -93 -365 110 -327 43 8 103 59 121 103 28 67
11 145 -42 195 -55 51 -120 61 -189 29z m118 -62 c37 -19 57 -52 57 -94 0
-133 -189 -140 -207 -8 -5 39 -2 46 30 78 37 37 78 45 120 24z"/>
</g>
</svg>
